<svg width="24" height="20" viewBox="0 0 24 20" fill="none" xmlns="http://www.w3.org/2000/svg">
<g clip-path="url(#clip0_150_1729)">
<path d="M21.0036 16.5104C20.2895 15.6887 19.3004 14.5723 17.4186 14.5723C15.5368 14.5723 14.5525 15.6984 13.8335 16.5104C13.1146 17.3224 12.7913 17.6752 12 17.6752C11.2087 17.6752 10.8372 17.2886 10.1665 16.5104C9.49578 15.7322 8.46321 14.5723 6.58142 14.5723C4.69964 14.5723 3.71532 15.6984 2.99638 16.5104C2.27744 17.3224 1.93486 17.6752 1.16285 17.6752H0V20H1.16285C3.04463 20 4.02895 18.8739 4.74789 18.0619C5.46683 17.2499 5.80941 16.8971 6.58142 16.8971C7.35344 16.8971 7.74427 17.2837 8.41496 18.0619C9.08564 18.84 10.1182 20 12 20C13.8818 20 14.8661 18.8739 15.585 18.0619C16.304 17.2499 16.6466 16.8971 17.4186 16.8971C18.1906 16.8971 18.5814 17.2837 19.2521 18.0619C19.9228 18.84 20.9554 20 22.8372 20H24V17.6752H22.8372C22.0651 17.6752 21.6743 17.2886 21.0036 16.5104Z" fill="#1B1B1B"/>
<path d="M21.0036 9.22671C20.2895 8.40506 19.3004 7.28857 17.4186 7.28857C15.5368 7.28857 14.5525 8.41472 13.8335 9.22671C13.1146 10.0387 12.7913 10.3915 12 10.3915C11.2087 10.3915 10.8372 10.0049 10.1665 9.22671C9.49578 8.44855 8.46321 7.28857 6.58142 7.28857C4.69964 7.28857 3.71532 8.41472 2.99638 9.22671C2.27744 10.0387 1.93486 10.3915 1.16285 10.3915H0V12.7163H1.16285C3.04463 12.7163 4.02895 11.5902 4.74789 10.7782C5.46683 9.9662 5.80941 9.61337 6.58142 9.61337C7.35344 9.61337 7.74427 10 8.41496 10.7782C9.08564 11.5563 10.1182 12.7163 12 12.7163C13.8818 12.7163 14.8661 11.5902 15.585 10.7782C16.304 9.9662 16.6466 9.61337 17.4186 9.61337C18.1906 9.61337 18.5814 10 19.2521 10.7782C19.9228 11.5563 20.9554 12.7163 22.8372 12.7163H24V10.3915H22.8372C22.0651 10.3915 21.6743 10.0049 21.0036 9.22671Z" fill="#1B1B1B"/>
<path d="M21.0036 1.93813C20.2895 1.11648 19.3004 0 17.4186 0C15.5368 0 14.5525 1.12615 13.8335 1.93813C13.1146 2.75012 12.7913 3.10295 12 3.10295C11.2087 3.10295 10.8372 2.71629 10.1665 1.93813C9.49578 1.15998 8.46321 0 6.58142 0C4.69964 0 3.71532 1.12615 2.99638 1.93813C2.27744 2.75012 1.93486 3.10295 1.16285 3.10295H0V5.42774H1.16285C3.04463 5.42774 4.02895 4.30159 4.74789 3.48961C5.46683 2.67762 5.80941 2.32479 6.58142 2.32479C7.35344 2.32479 7.74427 2.71145 8.41496 3.48961C9.08564 4.26776 10.1182 5.42774 12 5.42774C13.8818 5.42774 14.8661 4.30159 15.585 3.48961C16.304 2.67762 16.6466 2.32479 17.4186 2.32479C18.1906 2.32479 18.5814 2.71145 19.2521 3.48961C19.9228 4.26776 20.9554 5.42774 22.8372 5.42774H24V3.10295H22.8372C22.0651 3.10295 21.6743 2.71629 21.0036 1.93813Z" fill="#1B1B1B"/>
</g>
<defs>
<clipPath id="clip0_150_1729">
<rect width="24" height="20" fill="white"/>
</clipPath>
</defs>
</svg>
