<svg width="74" height="82" viewBox="0 0 74 82" fill="none" xmlns="http://www.w3.org/2000/svg">
<path d="M60.3333 25.3333C60.3333 19.1449 57.875 13.21 53.4992 8.83418C49.1233 4.45833 43.1884 2 37 2C30.8116 2 24.8767 4.45833 20.5008 8.83418C16.125 13.21 13.6667 19.1449 13.6667 25.3333C13.6667 52.5556 2 60.3333 2 60.3333H72C72 60.3333 60.3333 52.5556 60.3333 25.3333Z" stroke="white" stroke-width="3" stroke-linecap="round" stroke-linejoin="round"/>
<path d="M43.728 75.8892C43.0443 77.0678 42.063 78.0461 40.8822 78.7262C39.7015 79.4063 38.3628 79.7643 37.0002 79.7643C35.6377 79.7643 34.299 79.4063 33.1182 78.7262C31.9375 78.0461 30.9562 77.0678 30.2725 75.8892" stroke="white" stroke-width="3" stroke-linecap="round" stroke-linejoin="round"/>
</svg>
