<svg width="28" height="24" viewBox="0 0 28 24" fill="none" xmlns="http://www.w3.org/2000/svg">
<path fill-rule="evenodd" clip-rule="evenodd" d="M15.1464 0H12.4758V10.4122C11.88 10.614 11.3448 10.9472 10.9048 11.3775C10.1522 10.6692 9.10823 9.99953 7.57321 9.99953C5.42232 9.99953 4.29039 11.276 3.46455 12.2072L3.44792 12.226C2.62064 13.1587 2.22644 13.564 1.33808 13.564H0V16.2347H1.33808C3.48897 16.2347 4.6209 14.9582 5.44674 14.027L5.46337 14.0082C6.29065 13.0754 6.68486 12.6701 7.57321 12.6701C8.4566 12.6701 8.90625 13.1094 9.67014 13.9933C9.66031 14.1098 9.65529 14.2278 9.65529 14.3469C9.65529 16.6406 11.5147 18.5 13.8083 18.5C16.102 18.5 17.9614 16.6406 17.9614 14.3469C17.9614 14.2279 17.9564 14.1101 17.9466 13.9936C18.765 13.0712 19.1598 12.6701 20.0435 12.6701C20.9318 12.6701 21.3816 13.1143 22.1533 14.0082C22.9251 14.9021 24.1132 16.2347 26.2786 16.2347H27.6167V13.564H26.2786C25.3902 13.564 24.9405 13.1199 24.1688 12.226C23.347 11.2821 22.2088 9.99953 20.0435 9.99953C18.494 9.99953 17.4733 10.6619 16.7149 11.3805C16.2758 10.9501 15.7414 10.6165 15.1464 10.4141V8.19506H18.5721V5.52445H15.1464V4.15305H18.5721V1.48244H15.1464V0ZM20.0435 16.9398C22.2088 16.9398 23.347 18.2223 24.1688 19.1662C24.9405 20.0601 25.3902 20.5043 26.2786 20.5043H27.6167V23.1749H26.2786C24.1132 23.1749 22.9251 21.8424 22.1533 20.9485C21.3816 20.0546 20.9318 19.6104 20.0435 19.6104C19.1551 19.6104 18.7609 20.0157 17.9336 20.9485L17.917 20.9672C17.0912 21.8985 15.9592 23.1749 13.8083 23.1749C11.643 23.1749 10.4548 21.8424 9.68305 20.9485C8.91129 20.0546 8.46157 19.6104 7.57321 19.6104C6.68486 19.6104 6.29065 20.0157 5.46337 20.9485L5.44674 20.9672C4.6209 21.8985 3.48897 23.1749 1.33808 23.1749H0V20.5043H1.33808C2.22644 20.5043 2.62064 20.099 3.44792 19.1662L3.46455 19.1475C4.29039 18.2162 5.42233 16.9398 7.57321 16.9398C9.73857 16.9398 10.9267 18.2723 11.6985 19.1662C12.4703 20.0601 12.8978 20.5043 13.8083 20.5043C14.7189 20.5043 15.0909 20.099 15.9182 19.1662L15.9348 19.1475C16.7606 18.2162 17.8926 16.9398 20.0435 16.9398Z" fill="#1B1B1B"/>
</svg>
