<svg width="46" height="70" viewBox="0 0 46 70" fill="none" xmlns="http://www.w3.org/2000/svg">
<path d="M3.70546 46.9107L3.70496 46.9098C3.43168 46.4081 3.43168 45.7905 3.70496 45.2888C3.9778 44.788 4.46541 44.5 4.96947 44.5H41.0305C41.5383 44.5 42.0313 44.791 42.2923 45.2837L42.2922 45.2837L42.295 45.2888C42.5683 45.7905 42.5683 46.4081 42.295 46.9098L42.2945 46.9107L30.4782 68.7112C30.4781 68.7113 30.478 68.7115 30.4779 68.7116C30.205 69.2122 29.7176 69.5 29.2137 69.5H16.7863C16.2823 69.5 15.7947 69.2121 15.5219 68.7113C15.5219 68.7113 15.5218 68.7112 15.5218 68.7112L3.70546 46.9107ZM17.489 66.0397L17.6309 66.3014H17.9286H28.0812H28.3789L28.5208 66.0397L38.0629 48.4369L38.4631 47.6986H37.6233H8.38651H7.54673L7.94694 48.4369L17.489 66.0397Z" fill="white" stroke="#416AFF"/>
<path d="M41.7191 13.5136L42.5 14.0441V13.1V6C42.5 4.62386 41.3761 3.5 40 3.5H6C4.62386 3.5 3.5 4.62386 3.5 6V10.9V11.2949L3.88419 11.3864C5.93442 11.8746 7.7672 12.6504 9.3 13.8L9.29999 13.8L9.3034 13.8025C11.3067 15.2786 13.9671 16 16.6 16C19.2327 16 21.8928 15.2788 23.896 13.803C28.9241 10.1293 36.5928 10.0316 41.7191 13.5136ZM4.15811 14.6257L3.5 14.4063V15.1V43C3.5 44.3761 4.62386 45.5 6 45.5H40C41.3761 45.5 42.5 44.3761 42.5 43V17.8V17.5098L42.2481 17.3659C42.0176 17.2342 41.8015 17.1195 41.5968 17.0109C41.1217 16.7588 40.7082 16.5393 40.3201 16.2159L40.3086 16.2063L40.2966 16.1975C38.2933 14.7214 35.6329 14 33 14C30.3673 14 27.7072 14.7212 25.704 16.197C23.2006 18.0261 19.9078 19 16.6 19C13.2918 19 9.99851 18.0258 7.49501 16.1963L7.48631 16.1899L7.47735 16.184C6.53024 15.5526 5.38691 15.0353 4.15811 14.6257ZM15.9536 27.9464L15.9284 27.9213L15.9 27.9C15.6517 27.7138 15.5 27.378 15.5 27C15.5 26.6368 15.6443 26.2628 15.9536 25.9536C16.3421 25.565 16.7591 25.4369 17.2626 25.5808L17.33 25.6H17.342C17.3421 25.6001 17.3423 25.6002 17.3425 25.6002C17.3527 25.6044 17.3654 25.6097 17.3768 25.6142C17.4335 25.6369 17.5114 25.6652 17.6093 25.6829C17.6549 25.7116 17.6939 25.731 17.7195 25.7438L17.7264 25.7472C17.7411 25.7546 17.75 25.7593 17.7549 25.7619C17.8604 25.8646 17.9675 25.9179 18.0195 25.9438L18.0264 25.9472C18.0407 25.9544 18.0496 25.959 18.0545 25.9617C18.3582 26.2693 18.5 26.64 18.5 27C18.5 27.3632 18.3557 27.7372 18.0464 28.0464C18.0204 28.0725 18.0011 28.0917 17.983 28.1087C17.9822 28.1094 17.9814 28.1102 17.9806 28.1109C17.8276 28.139 17.7132 28.2151 17.65 28.2625C17.6143 28.2893 17.58 28.3187 17.549 28.347C17.5265 28.3551 17.5064 28.3633 17.4922 28.3692C17.4848 28.3722 17.4791 28.3746 17.4742 28.3766C17.466 28.38 17.4599 28.3825 17.4518 28.3858C17.4165 28.3999 17.4093 28.4 17.4 28.4H17C16.6368 28.4 16.2628 28.2557 15.9536 27.9464ZM27.85 35.9375C27.885 35.9638 27.9357 35.9988 28 36.0296V36.1071L28.1382 36.2453C28.1409 36.2503 28.1456 36.2592 28.1528 36.2736L28.1562 36.2805C28.1828 36.3339 28.2383 36.4454 28.3465 36.5536C28.4117 36.6188 28.4375 36.6594 28.4588 36.6947C28.4608 36.6981 28.4635 36.7029 28.4669 36.7088C28.4745 36.7223 28.4856 36.7417 28.5 36.7649V37.342C28.4993 37.3435 28.4987 37.3452 28.498 37.3469C28.4941 37.3562 28.4897 37.367 28.4858 37.3768C28.4575 37.4476 28.4204 37.5514 28.4061 37.6858C28.3897 37.7031 28.3712 37.7217 28.3465 37.7464C28.2383 37.8546 28.1828 37.9661 28.1562 38.0195L28.1528 38.0264C28.1492 38.0336 28.1462 38.0394 28.1438 38.044C27.7247 38.3681 27.3459 38.5 27 38.5H26.6338C26.6164 38.495 26.5938 38.4876 26.5581 38.4757L26.5533 38.4741C26.5191 38.4627 26.4702 38.4463 26.4222 38.4332C26.3982 38.4267 26.362 38.4173 26.3186 38.4102C26.3181 38.4097 26.3175 38.4092 26.317 38.4087C26.2989 38.3917 26.2796 38.3725 26.2535 38.3464C26.1454 38.2383 26.0339 38.1828 25.9805 38.1562L25.9736 38.1528C25.9664 38.1492 25.9606 38.1462 25.956 38.1438C25.6319 37.7247 25.5 37.3459 25.5 37V36.658C25.5042 36.6478 25.5096 36.6348 25.5142 36.6232C25.5425 36.5524 25.5796 36.4486 25.5939 36.3142C25.6103 36.2969 25.6288 36.2783 25.6535 36.2536C25.7617 36.1454 25.8172 36.0339 25.8438 35.9805L25.8472 35.9736C25.8544 35.9592 25.8591 35.9503 25.8618 35.9453C25.8838 35.9234 25.9008 35.9065 25.917 35.8913C25.9178 35.8906 25.9186 35.8898 25.9194 35.8891C26.0724 35.861 26.1868 35.7849 26.25 35.7375C26.2857 35.7107 26.32 35.6813 26.351 35.653C26.3735 35.6449 26.3936 35.6367 26.4078 35.6308C26.4153 35.6278 26.421 35.6254 26.426 35.6233C26.4341 35.62 26.4402 35.6175 26.4482 35.6142C26.4835 35.6001 26.4907 35.6 26.5 35.6H27.242C27.2522 35.6042 27.2652 35.6096 27.2768 35.6142C27.3335 35.6369 27.4114 35.6652 27.5093 35.6829C27.5549 35.7116 27.5939 35.731 27.6195 35.7438L27.6264 35.7472C27.6408 35.7544 27.6497 35.7591 27.6546 35.7618C27.6991 35.8063 27.7711 35.8783 27.85 35.9375ZM38.8 48.5H11.2H6C2.97614 48.5 0.5 46.0239 0.5 43V6C0.5 2.97614 2.97614 0.5 6 0.5H40C43.0239 0.5 45.5 2.97614 45.5 6V43C45.5 46.0239 43.0239 48.5 40 48.5H38.8Z" fill="white" stroke="#416AFF"/>
</svg>
