<svg width="25" height="25" viewBox="0 0 25 25" fill="none" xmlns="http://www.w3.org/2000/svg">
<g clip-path="url(#clip0_144_1587)">
<path d="M6.31616 7.52279C6.60591 7.52279 6.89566 7.4175 7.13273 7.18061C8.55513 5.73293 10.478 4.9433 12.5062 4.9433H12.6116L11.8477 5.70661C11.3999 6.15408 11.3999 6.86475 11.8477 7.31221C12.0584 7.52279 12.3482 7.65439 12.6379 7.65439C12.9277 7.65439 13.2174 7.54911 13.4282 7.31221L16.1149 4.62744C16.5627 4.17998 16.5627 3.4693 16.1149 3.02184L13.4519 0.337062C13.0041 -0.110401 12.2929 -0.110401 11.8451 0.337062C11.3973 0.784524 11.3973 1.4952 11.8451 1.94266L12.609 2.70598H12.5036C9.84319 2.70598 7.36716 3.73251 5.52331 5.62765C5.07551 6.07511 5.10186 6.78579 5.52331 7.23325C5.76037 7.4175 6.02378 7.52279 6.31353 7.52279H6.31616Z" fill="#252525"/>
<path d="M5.71033 13.1555C5.92106 13.3661 6.21081 13.4977 6.50056 13.4977C6.7903 13.4977 7.08005 13.3924 7.29078 13.1555C7.73857 12.7081 7.73857 11.9974 7.29078 11.5499L4.63036 8.86517C4.20891 8.44403 3.44503 8.44403 3.02358 8.86517L0.336821 11.5499C-0.110972 11.9974 -0.110972 12.7081 0.336821 13.1555C0.784614 13.603 1.49581 13.603 1.94361 13.1555L2.70749 12.3922V12.4975C2.70749 15.1296 3.73478 17.6302 5.63131 19.4727C5.84204 19.6832 6.13178 19.7885 6.42153 19.7885C6.71128 19.7885 7.00103 19.6832 7.2381 19.4463C7.68589 18.9989 7.65955 18.2882 7.2381 17.8407C5.76301 16.4457 4.94645 14.5243 4.94645 12.4975V12.3922L5.71033 13.1555Z" fill="#252525"/>
<path d="M17.8805 17.7851C16.4581 19.2328 14.5352 20.0488 12.507 20.0488H12.4016L13.1655 19.2854C13.6133 18.838 13.6133 18.1273 13.1655 17.6798C12.7177 17.2324 12.0065 17.2324 11.5587 17.6798L8.87198 20.3646C8.42418 20.8121 8.42418 21.5228 8.87198 21.9702L11.5587 24.655C11.7695 24.8656 12.0592 24.9972 12.349 24.9972C12.6387 24.9972 12.9285 24.8919 13.1392 24.655C13.587 24.2075 13.587 23.4968 13.1392 23.0494L12.3753 22.2861H12.507C15.1674 22.2861 17.6434 21.2595 19.4873 19.3644C19.9351 18.9169 19.9087 18.2063 19.4873 17.7588C19.0395 17.3377 18.3283 17.3377 17.8805 17.7851Z" fill="#252525"/>
<path d="M24.6735 11.8392C24.2257 11.3917 23.5145 11.3917 23.0667 11.8392L22.3028 12.6025V12.4972C22.3028 9.86511 21.2756 7.36458 19.379 5.52209C18.9312 5.07463 18.22 5.10095 17.7722 5.52209C17.3244 5.96955 17.3508 6.68023 17.7722 7.12769C19.221 8.54904 20.0112 10.4705 20.0112 12.4972V12.6025L19.2473 11.8392C18.7995 11.3917 18.0883 11.3917 17.6405 11.8392C17.1927 12.2867 17.1927 12.9973 17.6405 13.4448L20.3273 16.1296C20.538 16.3402 20.8278 16.4718 21.1175 16.4718C21.4073 16.4718 21.697 16.3665 21.9077 16.1296L24.5945 13.4448C25.1213 12.9973 25.1213 12.2867 24.6735 11.8392Z" fill="#252525"/>
</g>
<defs>
<clipPath id="clip0_144_1587">
<rect width="25" height="25" fill="white"/>
</clipPath>
</defs>
</svg>
