<svg width="27" height="24" viewBox="0 0 27 24" fill="none" xmlns="http://www.w3.org/2000/svg">
<g clip-path="url(#clip0_144_2344)">
<path d="M2.68457 23.4945L2.68457 0L-0.000359297 0L-0.000359297 23.4945H2.68457Z" fill="#1B1B1B"/>
<path d="M12.2468 18.0298V15.9198H14.3568V18.0298C14.3568 19.7769 15.7746 21.1891 17.5162 21.1891C19.2577 21.1891 20.6756 19.7713 20.6756 18.0298V17.0138L21.4682 16.8073C23.902 16.1877 25.37 13.7149 24.7504 11.2867C24.3373 9.67354 23.0814 8.41759 21.4682 8.00453L20.6756 7.798V6.78208C20.6756 5.03492 19.2577 3.62268 17.5162 3.62268C15.7746 3.62268 14.3568 5.0405 14.3568 6.78208V8.89206H12.2468V6.78208C12.2468 3.87387 14.608 1.5127 17.5162 1.5127C20.2011 1.5127 22.4618 3.53337 22.7521 6.20713C26.1738 7.53564 27.8707 11.3872 26.5478 14.809C25.8724 16.5505 24.4936 17.9293 22.7521 18.6047C22.4339 21.4962 19.8327 23.5838 16.9356 23.2656C14.2619 22.9698 12.2412 20.7147 12.2412 18.0298H12.2468Z" fill="#1B1B1B"/>
<path d="M5.21973 10.6504V8.54036H6.27472C7.24598 8.54036 8.03304 7.75331 8.03304 6.78204V5.72705H10.143V6.78204C10.143 8.91436 8.41261 10.6448 6.2803 10.6448H5.22531L5.21973 10.6504Z" fill="#1B1B1B"/>
<path d="M5.21945 16.2716V14.1616H6.27444C8.40675 14.1616 10.1372 15.892 10.1372 18.0243V19.0793H8.02718V18.0243C8.02718 17.0531 7.24012 16.266 6.26886 16.266H5.21387L5.21945 16.2716Z" fill="#1B1B1B"/>
<path d="M16.4671 11.3535H9.79102V13.4635H16.4671V11.3535Z" fill="#1B1B1B"/>
</g>
<defs>
<clipPath id="clip0_144_2344">
<rect width="27" height="23.4945" fill="white"/>
</clipPath>
</defs>
</svg>
