<svg width="72" height="72" viewBox="0 0 72 72" fill="none" xmlns="http://www.w3.org/2000/svg">
<path d="M47.2474 4.8375L47.2474 4.83783C50.2011 5.03264 52.7127 5.72753 54.5755 6.81257C56.4389 7.89798 57.6616 9.37988 58.0097 11.146C58.3511 12.8659 57.7966 14.6104 56.617 16.2416L69.1379 30.5512C71.99 33.8108 71.8118 38.9378 68.7561 41.9936L53.7561 56.9936C52.2268 58.5228 50.0632 59.4 47.825 59.4C45.7646 59.4 43.8168 58.6749 42.3139 57.363L42.3137 57.3629L15.2137 33.6504L15.2134 33.6501C13.6207 32.2485 12.7017 30.3351 12.6251 28.2555L12.6251 28.2546C12.5613 26.1749 13.3528 24.1976 14.8564 22.6939L34.4689 3.08143C35.9089 1.64149 37.7968 0.85 39.7875 0.85C41.9442 0.85 43.9977 1.7944 45.4381 3.45148L47.2474 4.8375ZM47.2474 4.8375H47.2375C47.0565 4.8375 46.8835 4.86558 46.7191 4.92227L45.4382 3.45159L47.2474 4.8375ZM55.2528 11.6789L55.2529 11.6794C55.3955 12.3922 55.2018 13.1925 54.7029 14.047L49.3285 7.90652C50.9394 8.20132 52.2947 8.68075 53.3048 9.29533C54.4018 9.96273 55.0764 10.7792 55.2528 11.6789ZM44.1489 55.2622L44.1488 55.2621L17.0616 31.5499C16.0537 30.6635 15.4733 29.4641 15.4249 28.1694C15.3766 26.8764 15.8835 25.6409 16.8315 24.6807C16.8316 24.6806 16.8316 24.6805 16.8317 24.6804L36.4436 5.05607C37.3538 4.14582 38.541 3.65 39.775 3.65C41.1303 3.65 42.3896 4.23021 43.312 5.28618L43.3121 5.28628L52.8509 16.186C50.6397 18.1026 47.0478 19.8845 42.4837 20.7778L42.4829 20.7779C40.0697 21.2631 37.6206 21.4369 35.4101 21.2878L35.4101 21.2877L35.4027 21.2875C34.6464 21.2738 33.9685 21.8121 33.9253 22.5904C33.87 23.3601 34.4574 24.0321 35.2283 24.0747C35.795 24.1125 36.3733 24.125 36.9625 24.125C38.9231 24.125 40.9953 23.9114 43.0414 23.5097L43.0416 23.5096C47.9171 22.5444 52.0215 20.6138 54.7111 18.2744L67.0496 32.3738L67.0497 32.3739C68.9474 34.5392 68.8258 37.9495 66.7939 39.9814L66.7689 40.0064L51.7689 55.0064C50.7609 56.0145 49.3246 56.6 47.8125 56.6C46.4343 56.6 45.1325 56.1244 44.1489 55.2622ZM11.1995 38.3875H11.2181C10.497 39.2167 8.22325 41.9136 5.98887 45.4448C3.40188 49.5333 0.85 54.7673 0.85 59.525C0.85 65.9328 6.06716 71.15 12.475 71.15C18.8828 71.15 24.1 65.9328 24.1 59.525C24.1 54.7674 21.5513 49.5334 18.9658 45.4448C16.3788 41.3538 13.7372 38.3823 13.5108 38.1364C12.9762 37.5461 11.9607 37.5462 11.4263 38.1369L11.1995 38.3875ZM12.475 68.35C7.60784 68.35 3.65 64.3922 3.65 59.525C3.65 56.1155 5.26155 52.2688 7.19431 48.8853C9.06512 45.6103 11.2252 42.789 12.475 41.25C13.7248 42.7891 15.8848 45.6134 17.7557 48.89C19.6885 52.2751 21.3 56.1218 21.3 59.525C21.3 64.3922 17.3422 68.35 12.475 68.35Z" fill="white" stroke="white" stroke-width="0.3"/>
</svg>
