<svg width="36" height="36" viewBox="0 0 36 36" fill="none" xmlns="http://www.w3.org/2000/svg">
<path d="M22.0036 27.2979L22.0037 27.2979C22.4665 27.7037 23.0802 27.9286 23.7319 27.9286C24.4466 27.9286 25.1241 27.6516 25.5985 27.1772L32.8824 19.8915L32.8824 19.8914L32.8945 19.8793L32.8945 19.8793C33.8526 18.921 33.9099 17.3106 33.0153 16.2896L33.0152 16.2895L27.0741 9.49882C25.7551 10.6232 23.7728 11.545 21.4301 12.0089L21.4299 12.009C20.4319 12.205 19.4206 12.3093 18.4632 12.3093C18.1762 12.3093 17.8937 12.3032 17.6164 12.2847M22.0036 27.2979L17.6255 12.135M22.0036 27.2979L8.85037 15.7806L22.0036 27.2979ZM17.6164 12.2847C17.6161 12.2847 17.6158 12.2847 17.6155 12.2847L17.6255 12.135M17.6164 12.2847C17.6167 12.2847 17.617 12.2848 17.6173 12.2848L17.6255 12.135M17.6164 12.2847C17.1991 12.2614 16.8818 11.898 16.9113 11.4819M17.6255 12.135C17.2917 12.1168 17.0367 11.8254 17.061 11.4914M16.9113 11.4819C16.9113 11.4824 16.9113 11.4828 16.9112 11.4833L17.061 11.4914M16.9113 11.4819C16.9113 11.4815 16.9114 11.481 16.9114 11.4806L17.061 11.4914M16.9113 11.4819C16.9352 11.0572 17.3045 10.7695 17.7072 10.7768L17.7145 10.7769L17.7145 10.7771C18.7805 10.849 19.9629 10.7652 21.1286 10.5308L21.1294 10.5306C23.295 10.1067 25.0029 9.26942 26.0691 8.36818L21.4884 3.1327L21.4883 3.1326C21.0546 2.63591 20.464 2.36429 19.8289 2.36429C19.2508 2.36429 18.6938 2.59651 18.2658 3.02459C18.2658 3.0246 18.2658 3.02461 18.2657 3.02462L8.74271 12.5561C8.74261 12.5562 8.74251 12.5563 8.74241 12.5564C8.29604 13.0088 8.05913 13.5885 8.08175 14.1937C8.10442 14.8005 8.37614 15.3633 8.85011 15.7804L17.061 11.4914M23.4625 2.78711L23.4625 2.78679H23.4526C23.3747 2.78679 23.299 2.79663 23.2262 2.8166L22.6372 2.14018C21.9233 1.31874 20.905 0.85 19.835 0.85C18.8473 0.85 17.9111 1.24293 17.1977 1.95645L7.67402 11.4825C6.92914 12.2276 6.53629 13.2085 6.56793 14.2403L6.56797 14.2412C6.60594 15.273 7.06203 16.2221 7.85095 16.9165L7.85127 16.9168L21.0109 28.4343L21.011 28.4344C21.7552 29.0842 22.7192 29.4429 23.7379 29.4429C24.8444 29.4429 25.915 29.0092 26.6726 28.2514L33.9565 20.9657C35.469 19.4528 35.5571 16.9165 34.1454 15.3027L28.1055 8.39823C28.6622 7.60861 28.9269 6.75801 28.7592 5.91315C28.5848 5.02776 27.973 4.29157 27.0548 3.7566C26.1372 3.222 24.9051 2.88229 23.4625 2.78711ZM27.2691 6.20171L27.2692 6.20227C27.3285 6.49857 27.2602 6.83559 27.0638 7.20396L24.675 4.47401C25.3534 4.61747 25.9247 4.83093 26.3588 5.09506C26.8811 5.41289 27.1891 5.79378 27.2691 6.20171ZM5.779 19.2368H5.7936L1 29.4264C1 32.4986 3.50081 35 6.57219 35C9.64357 35 12.1444 32.4986 12.1444 29.4264C12.1444 24.8486 7.23381 19.3175 7.02136 19.0868L7.1326 18.9862C7.13245 18.986 7.13231 18.9858 7.13216 18.9857C6.84184 18.6653 6.29576 18.6655 6.0057 18.9862L5.779 19.2368ZM6.57219 33.6357C4.25138 33.6357 2.36398 31.7479 2.36398 29.4264C2.36398 27.7912 3.13803 25.9374 4.07493 24.2968C4.95132 22.7622 5.95929 21.4328 6.57218 20.6727C7.18503 21.4329 8.19302 22.7638 9.06944 24.2991C10.0064 25.9405 10.7804 27.7942 10.7804 29.4264C10.7804 31.7479 8.893 33.6357 6.57219 33.6357Z" fill="#77838F" stroke="#77838F" stroke-width="0.3"/>
</svg>
