<svg width="27" height="24" viewBox="0 0 27 24" fill="none" xmlns="http://www.w3.org/2000/svg">
<g clip-path="url(#clip0_144_2381)">
<path d="M23.6291 19.046C22.8257 18.108 21.7129 16.8335 19.5959 16.8335C17.4789 16.8335 16.3715 18.119 15.5627 19.046C14.7539 19.9729 14.3902 20.3756 13.5 20.3756C12.6098 20.3756 12.1918 19.9342 11.4373 19.046C10.6827 18.1577 9.52111 16.8335 7.4041 16.8335C5.28709 16.8335 4.17973 18.119 3.37093 19.046C2.56212 19.9729 2.17672 20.3756 1.3082 20.3756H0V23.0295H1.3082C3.42521 23.0295 4.53257 21.7439 5.34137 20.817C6.15018 19.8901 6.53558 19.4873 7.4041 19.4873C8.27262 19.4873 8.7123 19.9287 9.46683 20.817C10.2214 21.7053 11.383 23.0295 13.5 23.0295C15.617 23.0295 16.7244 21.7439 17.5332 20.817C18.342 19.8901 18.7274 19.4873 19.5959 19.4873C20.4644 19.4873 20.9041 19.9287 21.6586 20.817C22.4131 21.7053 23.5748 23.0295 25.6918 23.0295H27V20.3756H25.6918C24.8233 20.3756 24.3836 19.9342 23.6291 19.046Z" fill="#1B1B1B"/>
<path d="M8.85836 8.08843H6.26367V6.62082H8.85836L7.19733 4.93251L8.22326 3.89525L10.9048 6.62082H11.7516L10.096 4.93251L11.1165 3.89525L12.7775 5.57804V4.71733L10.096 1.99176L11.1165 0.948984L12.7775 2.63729V0H14.2215V2.63729L15.8825 0.948984L16.903 1.99176L14.2215 4.71733V5.57804L15.8825 3.89525L16.903 4.93251L15.2474 6.62082H16.0942L18.7757 3.89525L19.8017 4.93251L18.1406 6.62082H20.7353V8.08843H18.1406L19.8017 9.77674L18.7757 10.814L16.0942 8.08843H15.2474L16.903 9.77674L15.8825 10.814L14.2215 9.13121V9.99192L16.903 12.7175L15.8825 13.7603L14.2215 12.072V14.7092H12.7775V12.072L11.1165 13.7603L10.0906 12.7175L12.7775 9.99192V9.13121L11.1165 10.814L10.096 9.77674L11.7516 8.08843H10.9048L8.22326 10.8195L7.19733 9.77674L8.85836 8.08843Z" fill="#1B1B1B"/>
</g>
<defs>
<clipPath id="clip0_144_2381">
<rect width="27" height="23.0294" fill="white"/>
</clipPath>
</defs>
</svg>
