<svg width="29" height="32" viewBox="0 0 29 32" fill="none" xmlns="http://www.w3.org/2000/svg">
<g clip-path="url(#clip0_149_1482)">
<path d="M4.20016 0H15.7108C16.1449 0 16.4966 0.351373 16.4966 0.784336V4.54977C16.4966 4.98273 16.1449 5.33372 15.7108 5.33372H13.8523V11.3921L19.6016 26.0124C20.7356 28.8954 18.6149 32 15.5122 32H4.39912C1.29599 32 -0.823906 28.8954 0.309304 26.0124L6.05864 11.3917V5.33372H4.20016C3.766 5.33372 3.41435 4.98273 3.41435 4.54977V0.784336C3.41435 0.351373 3.766 0 4.20016 0ZM7.72163 27.6811C6.68829 27.6811 6.68829 26.1129 7.72163 26.1129H12.1893C13.2227 26.1129 13.2227 27.6811 12.1893 27.6811H7.72163ZM7.72163 23.664C6.68829 23.664 6.68829 22.0953 7.72163 22.0953H12.1893C13.2227 22.0953 13.2227 23.664 12.1893 23.664H7.72163ZM7.72163 19.6465C6.68829 19.6465 6.68829 18.0782 7.72163 18.0782H12.1893C13.2227 18.0782 13.2227 19.6465 12.1893 19.6465H7.72163ZM18.1407 26.5824L12.3543 11.8682C12.3073 11.7674 12.2807 11.655 12.2807 11.5364V5.3341H7.63025L7.62909 11.5364C7.62909 11.6311 7.61174 11.7277 7.57511 11.8212L1.77025 26.5824C1.03188 28.4601 2.42188 30.4313 4.39912 30.4313H15.5122C17.5145 30.4313 18.8725 28.4432 18.1407 26.5824ZM14.925 1.56867H4.98597V3.76543H14.925V1.56867Z" fill="#77838F"/>
</g>
<defs>
<clipPath id="clip0_149_1482">
<rect width="29" height="32" fill="white"/>
</clipPath>
</defs>
</svg>
