<svg width="24" height="20" viewBox="0 0 24 20" fill="none" xmlns="http://www.w3.org/2000/svg">
<path d="M22.3486 1.96826V7.79049H16.5264" stroke="#FF8E50" stroke-width="2" stroke-linecap="round" stroke-linejoin="round"/>
<path d="M1 17.4941V11.6719H6.82223" stroke="#FF8E50" stroke-width="2" stroke-linecap="round" stroke-linejoin="round"/>
<path d="M3.43563 6.81994C3.92777 5.42918 4.7642 4.18577 5.86687 3.20571C6.96953 2.22565 8.3025 1.54088 9.74139 1.21532C11.1803 0.889752 12.6782 0.933991 14.0954 1.34391C15.5125 1.75382 16.8028 2.51606 17.8457 3.55949L22.3482 7.79031M1 11.6718L5.50253 15.9026C6.54543 16.946 7.83566 17.7083 9.25283 18.1182C10.67 18.5281 12.1679 18.5724 13.6068 18.2468C15.0457 17.9212 16.3786 17.2365 17.4813 16.2564C18.584 15.2763 19.4204 14.0329 19.9126 12.6422" stroke="#FF8E50" stroke-width="2" stroke-linecap="round" stroke-linejoin="round"/>
</svg>
