<svg width="27" height="19" viewBox="0 0 27 19" fill="none" xmlns="http://www.w3.org/2000/svg">
<path fill-rule="evenodd" clip-rule="evenodd" d="M20.4121 0H1.1879V2.38075H20.4121V0ZM20.417 5.39505H6.58295H5.45445H3.88543C1.74225 5.39505 0 7.1373 0 9.28048C0 11.4236 1.74225 13.1659 3.88543 13.1659L5.45445 13.1659L6.58295 13.1659L20.417 13.1659V13.1709H23.1146C23.9412 13.1709 24.6192 13.8489 24.6192 14.6755C24.6192 15.5021 23.9461 16.1802 23.1146 16.1802H20.417V18.561H23.1146C25.2577 18.561 27 16.8187 27 14.6755C27 12.5324 25.2577 10.7901 23.1146 10.7901H22.7434V10.7852H6.58295H5.45445H3.88543C3.05885 10.7852 2.38075 10.1071 2.38075 9.28048C2.38075 8.4539 3.0539 7.7758 3.88543 7.7758L5.45445 7.7758L6.58295 7.7758L20.417 7.7758H20.912H23.1146V7.77085C25.2577 7.77085 27 6.0286 27 3.88543C27 1.74225 25.2577 0 23.1146 0H20.417V2.3857H23.1146C23.9412 2.3857 24.6192 3.06379 24.6192 3.89038C24.6192 4.71696 23.9461 5.39505 23.1146 5.39505H20.912H20.417ZM20.4121 16.1802H1.1879V18.561H20.4121V16.1802Z" fill="#1B1B1B"/>
</svg>
