<svg width="20" height="20" viewBox="0 0 20 20" fill="none" xmlns="http://www.w3.org/2000/svg">
<g clip-path="url(#clip0_150_1735)">
<path d="M1.4203 20L4.36554 17.0548C6.29415 18.3741 8.93291 18.1723 10.6597 16.4455L17.4622 9.64306L14.6178 6.79873L16.7483 4.66829L18.576 6.39507L19.9963 4.97477L15.0252 0L13.6049 1.4203L15.3317 3.14708L13.2013 5.27752L10.3569 2.43319L3.55448 9.34031C1.8277 11.0671 1.62586 13.7059 2.94524 15.6345L0 18.5797L1.4203 20ZM9.23566 15.0252C8.11811 16.1428 6.1895 16.1428 4.97103 15.0252C3.9544 14.0086 3.85349 12.3865 4.66829 11.2689L10.9624 13.3994L9.23566 15.0252ZM12.5846 11.6763L6.1895 9.54588L10.4541 5.28126L14.7187 9.54588L12.5883 11.6763H12.5846Z" fill="black"/>
</g>
<defs>
<clipPath id="clip0_150_1735">
<rect width="20" height="20" fill="white"/>
</clipPath>
</defs>
</svg>
