<svg width="24" height="24" viewBox="0 0 24 24" fill="none" xmlns="http://www.w3.org/2000/svg">
<path fill-rule="evenodd" clip-rule="evenodd" d="M6.27791 14.8669H8.58898V14.2818C8.58898 11.7835 11.7835 8.58898 14.2818 8.58898H14.8669V6.27791H14.2818C11.7835 6.27791 8.58898 3.08337 8.58898 0.58508V0H6.27791V0.58508C6.27791 3.08337 3.08337 6.27791 0.58508 6.27791H0V8.58898H0.58508C3.08337 8.58898 6.27791 11.7835 6.27791 14.2818V14.8669ZM7.43637 10.6485C6.64066 9.36713 5.49975 8.22623 4.21843 7.43052C5.49975 6.63481 6.64066 5.4939 7.43637 4.21258C8.23208 5.4939 9.37298 6.63481 10.6543 7.43052C9.37298 8.22623 8.23208 9.36713 7.43637 10.6485ZM17.1253 18.863H19.4364V18.2779C19.4364 16.5051 21.7006 14.1531 23.4149 14.1531H24V11.842H23.4149C21.7065 11.842 19.4364 9.49 19.4364 7.71721V7.13213H17.1253V7.71721C17.1253 9.49 14.861 11.842 13.1468 11.842H12.5617V14.1531H13.1468C14.8552 14.1531 17.1253 16.5051 17.1253 18.2779V18.863ZM18.2721 14.9956C17.7513 14.2526 17.0785 13.568 16.3354 13.0239C17.0843 12.4739 17.7572 11.7894 18.2838 11.0405C18.8045 11.7835 19.4715 12.4681 20.2145 13.0122C19.4656 13.5505 18.7928 14.235 18.2721 14.9956ZM9.41979 23.4325H11.7309V22.8474C11.7309 21.6304 13.3457 20.0097 14.5685 20.0097H15.1536V17.6987H14.5685C13.3515 17.6987 11.7309 16.0839 11.7309 14.861V14.276H9.41979V14.861C9.41979 16.078 7.80497 17.6987 6.58215 17.6987H5.99707V20.0097H6.58215C7.79912 20.0097 9.41979 21.6246 9.41979 22.8474V23.4325ZM10.5724 19.8752C10.274 19.5007 9.92881 19.1555 9.54851 18.8513C9.92296 18.5529 10.2682 18.2077 10.5724 17.8274C10.8708 18.2018 11.216 18.547 11.5963 18.8513C11.2218 19.1497 10.8766 19.4949 10.5724 19.8752Z" fill="#1B1B1B"/>
</svg>
