<svg width="369" height="424" viewBox="0 0 369 424" fill="none" xmlns="http://www.w3.org/2000/svg">
<path d="M184.621 318.952C244.642 318.952 293.299 270.295 293.299 210.273C293.299 150.252 244.642 101.595 184.621 101.595C124.599 101.595 75.9424 150.252 75.9424 210.273C75.9424 270.295 124.599 318.952 184.621 318.952Z" stroke="#838F9B" stroke-width="3" stroke-miterlimit="10"/>
<path d="M360.001 2H9.21517C5.23034 2 2 5.23034 2 9.21517V414.785C2 418.77 5.23034 422 9.21517 422H360.001C363.986 422 367.216 418.77 367.216 414.785V9.21517C367.216 5.23034 363.986 2 360.001 2Z" stroke="#838F9B" stroke-width="3" stroke-miterlimit="10"/>
<path d="M2.64551 35.022L367.269 35.022" stroke="#838F9B" stroke-width="3" stroke-miterlimit="10"/>
<path d="M2.64551 386.762L367.269 386.762" stroke="#838F9B" stroke-width="3" stroke-miterlimit="10"/>
<path d="M184.622 266.487C153.584 266.487 128.408 241.324 128.408 210.273" stroke="#838F9B" stroke-width="3" stroke-miterlimit="10"/>
<path d="M239.005 220.182V200.366C239.005 196.333 242.278 193.061 246.311 193.061H262.223C254.17 156.572 221.07 129.503 181.864 130.817C139.771 132.234 105.731 166.983 105.138 209.101C104.507 253.539 140.338 289.757 184.621 289.757C222.616 289.757 254.363 263.099 262.223 227.474H246.311C242.278 227.474 239.005 224.202 239.005 220.169V220.182Z" stroke="#838F9B" stroke-width="3" stroke-miterlimit="10"/>
</svg>
