<svg width="70" height="70" viewBox="0 0 70 70" fill="none" xmlns="http://www.w3.org/2000/svg">
<g clip-path="url(#clip0_1150_31)">
<path d="M0 70H70V0H0V70ZM2.41379 67.5862V20.5172H67.5862V67.5862H2.41379ZM67.5862 2.41379V18.1034H2.41379V2.41379H67.5862Z" fill="white"/>
<path d="M34.9997 24.1377C23.6548 24.1377 14.4824 33.3101 14.4824 44.6549C14.4824 55.9998 23.6548 65.1722 34.9997 65.1722C46.3445 65.1722 55.5169 55.9998 55.5169 44.6549C55.5169 33.3101 46.3445 24.1377 34.9997 24.1377ZM34.9997 62.7584C25.5859 62.7584 17.8617 55.517 17.0169 46.3446C20.879 45.9825 22.9307 46.8273 25.1031 47.7929C26.9135 48.6377 28.8445 49.4825 31.6204 49.4825C32.4652 49.4825 33.5514 49.3618 34.6376 49.2411C39.5859 48.3963 41.879 49.3618 44.4135 50.448C46.2238 51.2929 48.1548 52.1377 50.9307 52.1377H51.6548C48.6376 58.2929 42.3617 62.7584 34.9997 62.7584ZM52.379 49.4825C49.241 49.8446 47.31 49.1205 45.2583 48.1549C42.7238 46.948 39.7066 45.7411 34.0341 46.7067C30.1721 47.4308 28.241 46.586 25.9479 45.4998C23.6548 44.5342 21.1204 43.3273 16.7755 43.8101C17.1376 34.1549 25.1031 26.4308 34.879 26.4308C44.6548 26.4308 52.9824 34.517 52.9824 44.5342C53.1031 46.3446 52.8617 48.0342 52.379 49.4825Z" fill="white"/>
<path d="M41.0348 13.276C43.0865 13.276 44.6554 11.7071 44.6554 9.65536C44.6554 7.60363 43.0865 6.03467 41.0348 6.03467C38.983 6.03467 37.4141 7.60363 37.4141 9.65536C37.4141 11.7071 38.983 13.276 41.0348 13.276ZM41.0348 8.44846C41.7589 8.44846 42.2416 8.93122 42.2416 9.65536C42.2416 10.3795 41.7589 10.8623 41.0348 10.8623C40.3106 10.8623 39.8279 10.3795 39.8279 9.65536C39.8279 8.93122 40.3106 8.44846 41.0348 8.44846Z" fill="white"/>
<path d="M50.69 13.276C52.7417 13.276 54.3107 11.7071 54.3107 9.65536C54.3107 7.60363 52.7417 6.03467 50.69 6.03467C48.6383 6.03467 47.0693 7.60363 47.0693 9.65536C47.0693 11.7071 48.6383 13.276 50.69 13.276ZM50.69 8.44846C51.4142 8.44846 51.8969 8.93122 51.8969 9.65536C51.8969 10.3795 51.4142 10.8623 50.69 10.8623C49.9659 10.8623 49.4831 10.3795 49.4831 9.65536C49.4831 8.93122 49.9659 8.44846 50.69 8.44846Z" fill="white"/>
<path d="M60.3453 13.276C62.397 13.276 63.966 11.7071 63.966 9.65536C63.966 7.60363 62.397 6.03467 60.3453 6.03467C58.2936 6.03467 56.7246 7.60363 56.7246 9.65536C56.7246 11.7071 58.2936 13.276 60.3453 13.276ZM60.3453 8.44846C61.0694 8.44846 61.5522 8.93122 61.5522 9.65536C61.5522 10.3795 61.0694 10.8623 60.3453 10.8623C59.6212 10.8623 59.1384 10.3795 59.1384 9.65536C59.1384 8.93122 59.6212 8.44846 60.3453 8.44846Z" fill="white"/>
</g>
<defs>
<clipPath id="clip0_1150_31">
<rect width="70" height="70" fill="white"/>
</clipPath>
</defs>
</svg>
