<svg width="42" height="48" viewBox="0 0 42 48" fill="none" xmlns="http://www.w3.org/2000/svg">
<path d="M5.58319 43.8855L18.3021 47.627C18.8625 47.7956 19.4568 47.8798 20.0512 47.8798C23.4474 47.8798 26.1984 45.1496 26.1984 41.7789V6.79092C26.1984 3.42021 23.4474 0.689941 20.0512 0.689941C19.4568 0.689941 18.8625 0.774209 18.3021 0.942744L5.58319 4.68423C2.73035 5.52691 0.726562 8.18976 0.726562 11.156V37.4138C0.726562 40.38 2.73035 43.0429 5.58319 43.8855ZM4.12281 11.156C4.12281 9.67288 5.1247 8.34145 6.55112 7.92011L19.27 4.17862C19.5248 4.09436 19.7795 4.06065 20.0512 4.06065C21.5625 4.06065 22.8021 5.29096 22.8021 6.79092V41.7789C22.8021 43.2788 21.5625 44.5091 20.0512 44.5091C19.7795 44.5091 19.5248 44.4754 19.27 44.3912L6.55112 40.6497C5.1247 40.2283 4.12281 38.8969 4.12281 37.4138V11.156Z" fill="white"/>
<path d="M5.58319 43.8855L18.3021 47.627C18.8625 47.7956 19.4568 47.8798 20.0512 47.8798C23.4474 47.8798 26.1984 45.1496 26.1984 41.7789V6.79092C26.1984 3.42021 23.4474 0.689941 20.0512 0.689941C19.4568 0.689941 18.8625 0.774209 18.3021 0.942744L5.58319 4.68423C2.73035 5.52691 0.726562 8.18976 0.726562 11.156V37.4138C0.726562 40.38 2.73035 43.0429 5.58319 43.8855ZM4.12281 11.156C4.12281 9.67288 5.1247 8.34145 6.55112 7.92011L19.27 4.17862C19.5248 4.09436 19.7795 4.06065 20.0512 4.06065C21.5625 4.06065 22.8021 5.29096 22.8021 6.79092V41.7789C22.8021 43.2788 21.5625 44.5091 20.0512 44.5091C19.7795 44.5091 19.5248 44.4754 19.27 44.3912L6.55112 40.6497C5.1247 40.2283 4.12281 38.8969 4.12281 37.4138V11.156Z" stroke="white"/>
<path d="M34.6874 39.4537H31.2912C30.3572 39.4705 29.61 40.2289 29.61 41.1727C29.627 42.0997 30.3742 42.8244 31.3082 42.8244H34.6874C38.4403 42.8244 41.4799 39.8076 41.4799 36.0829V12.488C41.4799 8.76336 38.4403 5.74658 34.6704 5.74658H31.2742C30.3232 5.76344 29.5761 6.52184 29.5931 7.46564C29.61 8.37573 30.3572 9.11729 31.2912 9.11729H34.6874C36.5554 9.11729 38.0837 10.6341 38.0837 12.488V36.0829C38.0837 37.9368 36.5893 39.4537 34.6874 39.4537Z" fill="white"/>
<path d="M34.6874 39.4537H31.2912C30.3572 39.4705 29.61 40.2289 29.61 41.1727C29.627 42.0997 30.3742 42.8244 31.3082 42.8244H34.6874C38.4403 42.8244 41.4799 39.8076 41.4799 36.0829V12.488C41.4799 8.76336 38.4403 5.74658 34.6704 5.74658H31.2742C30.3232 5.76344 29.5761 6.52184 29.5931 7.46564C29.61 8.37573 30.3572 9.11729 31.2912 9.11729H34.6874C36.5554 9.11729 38.0837 10.6341 38.0837 12.488V36.0829C38.0837 37.9368 36.5893 39.4537 34.6874 39.4537Z" stroke="white"/>
<path d="M17.7079 26.0703C18.7002 26.0703 19.506 25.2717 19.506 24.285C19.506 23.2982 18.7002 22.4996 17.7079 22.4996C16.7155 22.4996 15.9098 23.2982 15.9098 24.285C15.9098 25.2717 16.7155 26.0703 17.7079 26.0703Z" fill="white" stroke="white" stroke-width="0.2"/>
</svg>
