<svg width="27" height="21" viewBox="0 0 27 21" fill="none" xmlns="http://www.w3.org/2000/svg">
<g clip-path="url(#clip0_144_2376)">
<path d="M23.6294 17.0625C22.8237 16.135 21.7132 14.875 19.5968 14.875C17.4803 14.875 16.3742 16.1438 15.5642 17.0625C14.7542 17.9813 14.3927 18.375 13.5 18.375C12.6073 18.375 12.1935 17.9375 11.4358 17.0625C10.6781 16.1875 9.51968 14.875 7.40323 14.875C5.28677 14.875 4.18064 16.1438 3.37065 17.0625C2.56065 17.9813 2.17742 18.375 1.30645 18.375H0V21H1.30645C3.4229 21 4.52903 19.7312 5.33903 18.8125C6.14903 17.8937 6.53226 17.5 7.40323 17.5C8.27419 17.5 8.70968 17.9375 9.46742 18.8125C10.2252 19.6875 11.3835 21 13.5 21C15.6165 21 16.7226 19.7312 17.5326 18.8125C18.3426 17.8937 18.7258 17.5 19.5968 17.5C20.4677 17.5 20.9032 17.9375 21.661 18.8125C22.4187 19.6875 23.5771 21 25.6935 21H27V18.375H25.6935C24.8226 18.375 24.3871 17.9375 23.6294 17.0625Z" fill="white"/>
<path d="M5.66173 10.0625C5.66173 8.33438 6.30625 7.52938 7.11625 6.50562C8.02205 5.3725 9.1456 3.95938 9.1456 1.3125V0H6.5327V1.3125C6.5327 3.04063 5.88818 3.84563 5.07818 4.86938C4.17238 6.0025 3.04883 7.41563 3.04883 10.0625V11.375H5.66173V10.0625Z" fill="white"/>
<path d="M14.3707 10.0625C14.3707 8.33438 15.0152 7.52938 15.8252 6.50562C16.731 5.3725 17.8546 3.95938 17.8546 1.3125V0H15.2417V1.3125C15.2417 3.04063 14.5972 3.84563 13.7872 4.86938C12.8814 6.0025 11.7578 7.41563 11.7578 10.0625V11.375H14.3707V10.0625Z" fill="white"/>
<path d="M23.0797 10.0625C23.0797 8.33438 23.7242 7.52938 24.5342 6.50562C25.44 5.3725 26.5636 3.95938 26.5636 1.3125V0H23.9507V1.3125C23.9507 3.04063 23.3062 3.84563 22.4962 4.86938C21.5903 6.0025 20.4668 7.41563 20.4668 10.0625V11.375H23.0797V10.0625Z" fill="white"/>
</g>
<defs>
<clipPath id="clip0_144_2376">
<rect width="27" height="21" fill="white"/>
</clipPath>
</defs>
</svg>
