<svg width="39" height="42" viewBox="0 0 39 42" fill="none" xmlns="http://www.w3.org/2000/svg">
<path d="M18.2767 0.905762C12.9654 0.905762 7.86739 3.00843 4.09188 6.78464V2.94406C4.09188 1.82836 3.17466 0.905762 2.06547 0.905762C0.956278 0.905762 0.0390625 1.82836 0.0390625 2.94406V13.1355C0.0390625 14.2512 0.956278 15.1738 2.06547 15.1738H12.1975C13.3067 15.1738 14.2239 14.2512 14.2239 13.1355C14.2239 12.0198 13.3067 11.0972 12.1975 11.0972H5.67034C11.2803 4.10267 21.4763 2.98697 28.4301 8.62984C35.3839 14.2727 36.4931 24.5286 30.8831 31.5231C25.2732 38.5177 15.0771 39.6334 8.12336 33.9905C7.44078 33.4327 6.80086 32.8319 6.20361 32.1668C5.45703 31.33 4.1772 31.2442 3.3453 31.9737C2.51341 32.7247 2.42809 34.012 3.15333 34.8488C3.15333 34.8488 3.15333 34.8488 3.17466 34.8702C10.6404 43.2594 23.4387 43.9675 31.779 36.4794C40.1193 28.9699 40.8232 16.0964 33.3788 7.70724C29.5393 3.37317 24.036 0.905762 18.2767 0.905762Z" fill="white"/>
</svg>
