<svg width="40" height="42" viewBox="0 0 40 42" fill="none" xmlns="http://www.w3.org/2000/svg">
<path d="M21.1774 0.905272C26.4887 0.905272 31.5867 3.00794 35.3622 6.78415L35.3622 2.94357C35.3622 1.82787 36.2794 0.905273 37.3886 0.905273C38.4978 0.905273 39.415 1.82787 39.415 2.94357L39.415 13.1351C39.415 14.2508 38.4978 15.1734 37.3886 15.1734L27.2566 15.1734C26.1474 15.1734 25.2302 14.2508 25.2302 13.1351C25.2302 12.0194 26.1474 11.0968 27.2566 11.0968L33.7838 11.0968C28.1738 4.10218 17.9778 2.98648 11.024 8.62934C4.07024 14.2722 2.96105 24.5281 8.57099 31.5226C14.1809 38.5172 24.377 39.6329 31.3307 33.9901C32.0133 33.4322 32.6532 32.8314 33.2505 32.1663C33.9971 31.3295 35.2769 31.2437 36.1088 31.9732C36.9407 32.7242 37.026 34.0115 36.3008 34.8483C36.3008 34.8483 36.3008 34.8483 36.2794 34.8697C28.8137 43.2589 16.0154 43.967 7.67511 36.4789C-0.665156 28.9694 -1.36907 16.0959 6.07531 7.70675C9.91482 3.37268 15.4181 0.905271 21.1774 0.905272Z" fill="white"/>
</svg>
