<svg width="24" height="23" viewBox="0 0 24 23" fill="none" xmlns="http://www.w3.org/2000/svg">
<g clip-path="url(#clip0_150_1727)">
<path d="M24 12.9383V14.4084C24 19.1497 20.184 23 15.4849 23H8.52773C3.81603 22.9936 0 19.1497 0 14.402V12.9383C0 11.4236 0.397372 9.94077 1.14796 8.62976C1.22365 8.49611 1.36242 8.40065 1.52011 8.38155H1.54534H1.58318C1.71564 8.38155 1.84809 8.43247 1.94271 8.53429L3.85388 10.4626L3.73403 10.7236C3.41235 11.4172 3.24836 12.1746 3.25466 12.9446V14.4148C3.25466 17.3486 5.61367 19.7225 8.52142 19.7288H15.4786C18.3863 19.7288 20.739 17.3486 20.7453 14.4148V12.9446C20.7453 10.0108 18.3863 7.63059 15.4786 7.62422H13.6873L15.5353 9.48892L13.2583 11.8309L7.39869 5.91863L12.0852 1.18371L13.2142 0.00634766L15.5543 2.31017L15.283 2.60292L13.5611 4.34033H15.4786C20.184 4.34033 24 8.19699 24.0063 12.9446L24 12.9383Z" fill="#1B1B1B"/>
</g>
<defs>
<clipPath id="clip0_150_1727">
<rect width="24" height="23" fill="white"/>
</clipPath>
</defs>
</svg>
