<svg width="74" height="74" viewBox="0 0 74 74" fill="none" xmlns="http://www.w3.org/2000/svg">
<path d="M36.9996 46.5455C42.2714 46.5455 46.545 42.2719 46.545 37C46.545 31.7282 42.2714 27.4546 36.9996 27.4546C31.7277 27.4546 27.4541 31.7282 27.4541 37C27.4541 42.2719 31.7277 46.5455 36.9996 46.5455Z" stroke="white" stroke-width="3" stroke-linecap="round" stroke-linejoin="round"/>
<path d="M60.5455 46.5455C60.1219 47.5051 59.9956 48.5697 60.1827 49.6019C60.3699 50.634 60.8619 51.5865 61.5955 52.3364L61.7864 52.5273C62.378 53.1183 62.8474 53.8201 63.1677 54.5927C63.4879 55.3652 63.6527 56.1933 63.6527 57.0295C63.6527 57.8658 63.4879 58.6939 63.1677 59.4664C62.8474 60.239 62.378 60.9408 61.7864 61.5318C61.1954 62.1235 60.4935 62.5929 59.721 62.9131C58.9485 63.2334 58.1204 63.3982 57.2841 63.3982C56.4478 63.3982 55.6197 63.2334 54.8472 62.9131C54.0747 62.5929 53.3728 62.1235 52.7818 61.5318L52.5909 61.3409C51.841 60.6074 50.8886 60.1153 49.8564 59.9282C48.8243 59.741 47.7597 59.8674 46.8 60.2909C45.8589 60.6942 45.0563 61.364 44.491 62.2176C43.9256 63.0713 43.6223 64.0716 43.6182 65.0955V65.6364C43.6182 67.3241 42.9477 68.9427 41.7543 70.1361C40.5609 71.3295 38.9423 72 37.2545 72C35.5668 72 33.9482 71.3295 32.7548 70.1361C31.5614 68.9427 30.8909 67.3241 30.8909 65.6364V65.35C30.8663 64.2968 30.5254 63.2754 29.9125 62.4186C29.2997 61.5617 28.4432 60.9091 27.4545 60.5455C26.4949 60.1219 25.4303 59.9956 24.3981 60.1827C23.366 60.3699 22.4135 60.8619 21.6636 61.5955L21.4727 61.7864C20.8817 62.378 20.1799 62.8474 19.4073 63.1677C18.6348 63.4879 17.8067 63.6527 16.9705 63.6527C16.1342 63.6527 15.3061 63.4879 14.5336 63.1677C13.761 62.8474 13.0592 62.378 12.4682 61.7864C11.8765 61.1954 11.4071 60.4935 11.0869 59.721C10.7666 58.9485 10.6018 58.1204 10.6018 57.2841C10.6018 56.4478 10.7666 55.6197 11.0869 54.8472C11.4071 54.0747 11.8765 53.3728 12.4682 52.7818L12.6591 52.5909C13.3926 51.841 13.8847 50.8886 14.0718 49.8564C14.259 48.8243 14.1326 47.7597 13.7091 46.8C13.3058 45.8589 12.636 45.0563 11.7824 44.491C10.9287 43.9256 9.92841 43.6223 8.90455 43.6182H8.36364C6.6759 43.6182 5.05728 42.9477 3.86387 41.7543C2.67045 40.5609 2 38.9423 2 37.2545C2 35.5668 2.67045 33.9482 3.86387 32.7548C5.05728 31.5614 6.6759 30.8909 8.36364 30.8909H8.65C9.70316 30.8663 10.7246 30.5254 11.5814 29.9125C12.4383 29.2997 13.0909 28.4432 13.4545 27.4545C13.8781 26.4949 14.0044 25.4303 13.8173 24.3981C13.6301 23.366 13.1381 22.4135 12.4045 21.6636L12.2136 21.4727C11.622 20.8817 11.1526 20.1799 10.8323 19.4073C10.5121 18.6348 10.3473 17.8067 10.3473 16.9705C10.3473 16.1342 10.5121 15.3061 10.8323 14.5336C11.1526 13.761 11.622 13.0592 12.2136 12.4682C12.8046 11.8765 13.5065 11.4071 14.279 11.0869C15.0515 10.7666 15.8796 10.6018 16.7159 10.6018C17.5522 10.6018 18.3803 10.7666 19.1528 11.0869C19.9253 11.4071 20.6272 11.8765 21.2182 12.4682L21.4091 12.6591C22.159 13.3926 23.1114 13.8847 24.1436 14.0718C25.1757 14.259 26.2403 14.1326 27.2 13.7091H27.4545C28.3956 13.3058 29.1982 12.636 29.7636 11.7824C30.3289 10.9287 30.6323 9.92841 30.6364 8.90455V8.36364C30.6364 6.6759 31.3068 5.05728 32.5002 3.86387C33.6936 2.67045 35.3123 2 37 2C38.6877 2 40.3064 2.67045 41.4998 3.86387C42.6932 5.05728 43.3636 6.6759 43.3636 8.36364V8.65C43.3677 9.67387 43.6711 10.6742 44.2364 11.5278C44.8018 12.3815 45.6044 13.0512 46.5455 13.4545C47.5051 13.8781 48.5697 14.0044 49.6019 13.8173C50.634 13.6301 51.5865 13.1381 52.3364 12.4045L52.5273 12.2136C53.1183 11.622 53.8201 11.1526 54.5927 10.8323C55.3652 10.5121 56.1933 10.3473 57.0295 10.3473C57.8658 10.3473 58.6939 10.5121 59.4664 10.8323C60.239 11.1526 60.9408 11.622 61.5318 12.2136C62.1235 12.8046 62.5929 13.5065 62.9131 14.279C63.2334 15.0515 63.3982 15.8796 63.3982 16.7159C63.3982 17.5522 63.2334 18.3803 62.9131 19.1528C62.5929 19.9253 62.1235 20.6272 61.5318 21.2182L61.3409 21.4091C60.6074 22.159 60.1153 23.1114 59.9282 24.1436C59.741 25.1757 59.8674 26.2403 60.2909 27.2V27.4545C60.6942 28.3956 61.364 29.1982 62.2176 29.7636C63.0713 30.3289 64.0716 30.6323 65.0955 30.6364H65.6364C67.3241 30.6364 68.9427 31.3068 70.1361 32.5002C71.3295 33.6936 72 35.3123 72 37C72 38.6877 71.3295 40.3064 70.1361 41.4998C68.9427 42.6932 67.3241 43.3636 65.6364 43.3636H65.35C64.3261 43.3677 63.3258 43.6711 62.4722 44.2364C61.6185 44.8018 60.9488 45.6044 60.5455 46.5455Z" stroke="white" stroke-width="3" stroke-linecap="round" stroke-linejoin="round"/>
</svg>
