<svg width="28" height="27" viewBox="0 0 28 27" fill="none" xmlns="http://www.w3.org/2000/svg">
<path fill-rule="evenodd" clip-rule="evenodd" d="M2.61098 11.497V15.7961H0V11.497V2.97467V0H2.61098V2.97467H6.62244H9.16827H16.8709C19.4493 2.97467 21.5446 5.06996 21.5446 7.64837V16.9847C22.4832 17.4318 23.1186 18.1519 23.6291 18.7382C24.3836 19.6122 24.8233 20.0464 25.6918 20.0464H27V22.6574H25.6918C23.5748 22.6574 22.4131 21.3546 21.6586 20.4807C20.9041 19.6068 20.4644 19.1725 19.5959 19.1725C18.7274 19.1725 18.342 19.5688 17.5332 20.4807L17.5169 20.499C16.7095 21.4095 15.6029 22.6574 13.5 22.6574C11.383 22.6574 10.2214 21.3546 9.46683 20.4807C8.7123 19.6068 8.27262 19.1725 7.4041 19.1725C6.53558 19.1725 6.15018 19.5688 5.34137 20.4807L5.32511 20.499C4.51772 21.4095 3.41106 22.6574 1.3082 22.6574H0V20.0464H1.3082C2.17672 20.0464 2.56212 19.6502 3.37093 18.7382L3.38719 18.7199C4.19458 17.8094 5.30124 16.5615 7.4041 16.5615C9.52111 16.5615 10.6827 17.8643 11.4373 18.7382C12.1856 19.605 12.6029 20.0393 13.4783 20.0464V11.497H9.16827H5.88963H2.61098ZM2.61098 8.88601H5.88963H6.5573V5.58022H2.61098V8.88601ZM18.9337 16.6052C17.6197 16.7836 16.7495 17.4798 16.0893 18.1619V10.585C16.0893 9.64596 15.3293 8.88601 14.3902 8.88601H9.16827V5.58565H16.8709C18.0109 5.58565 18.9337 6.51387 18.9337 7.64837V16.6052Z" fill="#1B1B1B"/>
<circle cx="8" cy="25" r="2" fill="#1B1B1B"/>
<circle cx="20" cy="25" r="2" fill="#1B1B1B"/>
<circle cx="26" cy="15" r="2" fill="#1B1B1B"/>
</svg>
