<svg width="14" height="32" viewBox="0 0 14 32" fill="none" xmlns="http://www.w3.org/2000/svg">
<path d="M10.3333 19.7622V4.40883C10.3333 3.50476 9.98214 2.6377 9.35702 1.99842C8.7319 1.35914 7.88406 1 7 1C6.11595 1 5.2681 1.35914 4.64298 1.99842C4.01786 2.6377 3.66667 3.50476 3.66667 4.40883V19.7622C2.59637 20.4935 1.78443 21.5575 1.35076 22.7969C0.917095 24.0363 0.884693 25.3855 1.25834 26.6452C1.63199 27.9049 2.39188 29.0083 3.42578 29.7925C4.45968 30.5767 5.71278 31 7 31C8.28722 31 9.54032 30.5767 10.5742 29.7925C11.6081 29.0083 12.368 27.9049 12.7417 26.6452C13.1153 25.3855 13.0829 24.0363 12.6492 22.7969C12.2156 21.5575 11.4036 20.4935 10.3333 19.7622Z" stroke="#77838F" stroke-width="2" stroke-linecap="round" stroke-linejoin="round"/>
</svg>
