<svg width="24" height="57" viewBox="0 0 24 57" fill="none" xmlns="http://www.w3.org/2000/svg">
<path d="M18.4987 35.3974V7.24953C18.4987 5.59205 17.8403 4.00246 16.6682 2.83044C15.4962 1.65843 13.9066 1 12.2492 1C10.5917 1 9.00208 1.65843 7.83007 2.83044C6.65805 4.00246 5.99962 5.59205 5.99962 7.24953V35.3974C3.99297 36.7382 2.4707 38.6887 1.65763 40.961C0.844566 43.2333 0.783817 45.7068 1.48436 48.0162C2.1849 50.3256 3.60958 52.3486 5.548 53.7862C7.48642 55.2239 9.8358 56 12.2492 56C14.6625 56 17.0119 55.2239 18.9503 53.7862C20.8887 52.3486 22.3134 50.3256 23.0139 48.0162C23.7145 45.7068 23.6537 43.2333 22.8407 40.961C22.0276 38.6887 20.5053 36.7382 18.4987 35.3974Z" fill="#1D1D1D"/>
<mask id="mask0_123_2633" style="mask-type:alpha" maskUnits="userSpaceOnUse" x="1" y="1" width="23" height="55">
<path d="M17.9987 35.3974C17.9987 35.5644 18.0821 35.7204 18.2209 35.8131C20.1384 37.0943 21.593 38.9582 22.3699 41.1294C23.1468 43.3007 23.2049 45.6643 22.5355 47.8711C21.8661 50.0779 20.5047 52.0109 18.6525 53.3846C16.8002 54.7584 14.5552 55.5 12.2492 55.5C9.94307 55.5 7.69811 54.7584 5.84585 53.3846C3.99359 52.0109 2.63223 50.0779 1.96283 47.8711C1.29343 45.6643 1.35147 43.3007 2.1284 41.1294C2.90533 38.9582 4.35994 37.0943 6.2774 35.8131C6.41625 35.7204 6.49962 35.5644 6.49962 35.3974V7.24953C6.49962 5.72466 7.10538 4.26224 8.18362 3.184C9.26187 2.10575 10.7243 1.5 12.2492 1.5C13.774 1.5 15.2364 2.10575 16.3147 3.184C17.3929 4.26224 17.9987 5.72466 17.9987 7.24953V35.3974Z" fill="#1D1D1D" stroke="black" stroke-linecap="round" stroke-linejoin="round"/>
</mask>
<g mask="url(#mask0_123_2633)">
<path d="M-1 27H26V43.5C26 50.9558 19.9558 57 12.5 57C5.04416 57 -1 50.9558 -1 43.5V27Z" fill="#FF7427"/>
</g>
<path d="M18.4987 35.3974V7.24953C18.4987 5.59205 17.8403 4.00246 16.6682 2.83044C15.4962 1.65843 13.9066 1 12.2492 1C10.5917 1 9.00208 1.65843 7.83007 2.83044C6.65805 4.00246 5.99962 5.59205 5.99962 7.24953V35.3974C3.99297 36.7382 2.4707 38.6887 1.65763 40.961C0.844566 43.2333 0.783817 45.7068 1.48436 48.0162C2.1849 50.3256 3.60958 52.3486 5.548 53.7862C7.48642 55.2239 9.8358 56 12.2492 56C14.6625 56 17.0119 55.2239 18.9503 53.7862C20.8887 52.3486 22.3134 50.3256 23.0139 48.0162C23.7145 45.7068 23.6537 43.2333 22.8407 40.961C22.0276 38.6887 20.5053 36.7382 18.4987 35.3974Z" stroke="#1D1D1D" stroke-linecap="round" stroke-linejoin="round"/>
</svg>
