<svg width="27" height="19" viewBox="0 0 27 19" fill="none" xmlns="http://www.w3.org/2000/svg">
<path fill-rule="evenodd" clip-rule="evenodd" d="M24.8334 1.0482V0H27V18.9H24.8334V17.8554L21.6989 17.8554V18.9H19.5323V17.8554H19.424H19.4204L15.1051 17.8554L12.0682 17.8554C8.77565 17.8554 5.91695 15.9595 4.53207 13.2051H3.76635C1.68998 13.2051 0 11.5194 0 9.4518C0 7.38422 1.68998 5.69485 3.76635 5.69485H4.53314C5.91765 2.94242 8.77348 1.0482 12.0646 1.0482L15.1051 1.0482L19.4204 1.0482H19.5323V0H21.6989V1.0482L24.8334 1.0482ZM24.8334 15.723H21.6989V3.18062H24.8334V15.723ZM19.4204 3.18062H19.5323V15.723H15.1051L12.0646 15.723C8.59797 15.723 5.77772 12.9098 5.77772 9.4518C5.77772 5.99382 8.59797 3.18062 12.0646 3.18062H15.1051H19.4204ZM3.76635 7.85609H3.79592C3.69594 8.37289 3.64357 8.90638 3.64357 9.4518C3.64357 9.99596 3.69575 10.5282 3.79536 11.0439H3.76635C2.88525 11.0439 2.16664 10.3307 2.16664 9.4518C2.16664 8.5729 2.88525 7.85609 3.76635 7.85609ZM10.3277 6.3036H16.8962V7.7012H10.3277V6.3036ZM16.8962 11.1988H10.3277V12.5964H16.8962V11.1988ZM10.3277 8.753H16.8962V10.1506H10.3277V8.753Z" fill="#1B1B1B" fill-opacity="0.33"/>
</svg>
